<?xml version="1.0" encoding="utf-8"?>
<!-- Generator: Adobe Illustrator 16.0.0, SVG Export Plug-In . SVG Version: 6.00 Build 0)  -->
<!DOCTYPE svg PUBLIC "-//W3C//DTD SVG 1.1//EN" "http://www.w3.org/Graphics/SVG/1.1/DTD/svg11.dtd">
<svg version="1.1" id="Objects" xmlns="http://www.w3.org/2000/svg" xmlns:xlink="http://www.w3.org/1999/xlink" x="0px" y="0px"
	 width="800px" height="800px" viewBox="0 0 800 800" enable-background="new 0 0 800 800" xml:space="preserve">
<g>
	<g>
		<g>
			<path fill="#77828B" d="M772.799,770.896H32.834c-9.848,0-17.831-7.983-17.831-17.831l0,0H790.63l0,0
				C790.63,762.912,782.647,770.896,772.799,770.896z"/>
			<polygon fill="#949EA8" points="790.68,753.064 15.003,753.064 54.602,712.058 751.081,712.058 			"/>
		</g>
		<g>
			<path fill="#282827" d="M730.493,732.153h-32.316c0-3.464,2.685-6.29,6.091-6.526v-8.49c0-2.318,1.726-4.197,3.96-4.482v-18.196
				c0-1.737,1.408-3.146,3.146-3.146h0.401V514.834h5.12v176.479h0.39c1.751,0,3.157,1.408,3.157,3.146v18.196
				c2.236,0.285,3.962,2.164,3.962,4.482v8.49C727.81,725.863,730.493,728.689,730.493,732.153z"/>
			<path fill="#1E1E1E" d="M730.493,732.153h-32.316c0-3.464,2.685-6.29,6.091-6.526v-8.49c0-1.313,0.556-2.494,1.455-3.311
				c5.308,7.923,12.664,12.12,17.712,9.624c0.343-0.164,0.663-0.365,0.97-0.591v2.768
				C727.81,725.863,730.493,728.689,730.493,732.153z"/>
			<rect x="711.775" y="514.834" fill="#1E1E1E" width="5.12" height="2.756"/>
			<path fill="#282827" d="M719.213,516.407h-9.756c-2.938,0-5.32-2.382-5.32-5.321l0,0h20.396l0,0
				C724.533,514.025,722.151,516.407,719.213,516.407z"/>
			<path fill="#FFE052" d="M731.014,496.354c0.131,5.912-2.259,11.47-6.267,14.567l-0.214,0.165h-20.396
				c-4.481-2.825-7.283-8.596-7.283-14.839c0-0.368,0.012-0.745,0.035-1.112l0.981-18.091l0.307-5.794h32.316l0.119,5.794
				L731.014,496.354z"/>
			<path fill="#FDC140" d="M730.967,498.197c-0.344,5.203-2.637,9.955-6.22,12.724l-0.214,0.165h-20.396
				c-3.891-2.459-6.526-7.131-7.142-12.415c4.341,4.753,10.252,7.686,16.778,7.686C720.515,506.356,726.591,503.234,730.967,498.197
				z"/>
			<path fill="#282827" d="M730.766,474.605h-32.862l2.753-10.132c1.324-4.879,6.867-8.371,13.287-8.371l0,0h0.783
				c6.419,0,11.962,3.492,13.287,8.371L730.766,474.605z"/>
			<path fill="#1E1E1E" d="M728.014,464.474c-0.473-1.74-1.487-3.298-2.882-4.589c-0.854,3.754-6.827,6.662-14.081,6.662
				c-4.059,0-7.708-0.914-10.297-2.372c-0.03,0.1-0.07,0.197-0.098,0.299l-2.753,10.132h32.862L728.014,464.474z"/>
			<polygon fill="#FDC140" points="730.612,477.044 697.87,477.044 698.177,471.25 730.493,471.25 			"/>
			<path fill="#282827" d="M734.175,474.676h-39.68l0,0c-0.86-3.397,1.708-6.695,5.212-6.695h29.256
				C732.467,467.98,735.033,471.278,734.175,474.676L734.175,474.676z"/>
			<path fill="#1E1E1E" d="M731.822,468.806c-3.625,2.25-13.008,3.851-24.016,3.851c-4.847,0-9.378-0.311-13.242-0.85
				c-0.271,0.896-0.32,1.877-0.069,2.869l0,0h39.68C734.773,472.309,733.707,469.995,731.822,468.806z"/>
		</g>
		<g>
			<path fill="#282827" d="M103.607,732.153H71.291c0-3.464,2.685-6.29,6.09-6.526v-8.49c0-2.318,1.726-4.197,3.961-4.482v-18.196
				c0-1.737,1.407-3.146,3.145-3.146h0.402V514.834h5.121v176.479h0.389c1.75,0,3.158,1.408,3.158,3.146v18.196
				c2.234,0.285,3.96,2.164,3.96,4.482v8.49C100.923,725.863,103.607,728.689,103.607,732.153z"/>
			<path fill="#1E1E1E" d="M103.607,732.153H71.291c0-3.464,2.685-6.29,6.09-6.526v-8.49c0-1.313,0.555-2.494,1.454-3.311
				c5.309,7.923,12.664,12.12,17.713,9.624c0.343-0.164,0.662-0.365,0.969-0.591v2.768
				C100.923,725.863,103.607,728.689,103.607,732.153z"/>
			<rect x="84.889" y="514.834" fill="#1E1E1E" width="5.121" height="2.756"/>
			<path fill="#282827" d="M92.326,516.407H82.57c-2.938,0-5.321-2.382-5.321-5.321l0,0h20.397l0,0
				C97.647,514.025,95.265,516.407,92.326,516.407z"/>
			<path fill="#FFE052" d="M104.127,496.354c0.13,5.912-2.259,11.47-6.268,14.567l-0.212,0.165H77.25
				c-4.48-2.825-7.283-8.596-7.283-14.839c0-0.368,0.012-0.745,0.036-1.112l0.981-18.091l0.308-5.794h32.316l0.118,5.794
				L104.127,496.354z"/>
			<path fill="#FDC140" d="M104.08,498.197c-0.343,5.203-2.637,9.955-6.22,12.724l-0.212,0.165H77.25
				c-3.89-2.459-6.526-7.131-7.141-12.415c4.339,4.753,10.251,7.686,16.778,7.686C93.627,506.356,99.705,503.234,104.08,498.197z"/>
			<path fill="#282827" d="M103.878,474.605H71.017l2.752-10.132c1.326-4.879,6.868-8.371,13.288-8.371l0,0h0.783
				c6.419,0,11.962,3.492,13.287,8.371L103.878,474.605z"/>
			<path fill="#1E1E1E" d="M101.127,464.474c-0.472-1.74-1.488-3.298-2.882-4.589c-0.854,3.754-6.827,6.662-14.081,6.662
				c-4.058,0-7.709-0.914-10.296-2.372c-0.031,0.1-0.072,0.197-0.099,0.299l-2.752,10.132h32.861L101.127,464.474z"/>
			<polygon fill="#FDC140" points="103.725,477.044 70.983,477.044 71.291,471.25 103.607,471.25 			"/>
			<path fill="#282827" d="M107.288,474.676H67.608l0,0c-0.859-3.397,1.708-6.695,5.212-6.695h29.256
				C105.58,467.98,108.147,471.278,107.288,474.676L107.288,474.676z"/>
			<path fill="#1E1E1E" d="M104.936,468.806c-3.625,2.25-13.008,3.851-24.016,3.851c-4.846,0-9.378-0.311-13.243-0.85
				c-0.271,0.896-0.32,1.877-0.069,2.869l0,0h39.679C107.886,472.309,106.82,469.995,104.936,468.806z"/>
		</g>
	</g>
	<g>
		<g>
			<rect x="135.711" y="337.88" fill="#FAAE5F" width="534.271" height="362.571"/>
			<rect x="542.578" y="443.623" fill="#F69245" width="41.432" height="13.73"/>
			<rect x="501.474" y="423.949" fill="#F69245" width="41.433" height="13.73"/>
			<g>
				<rect x="633.386" y="375.873" fill="#F69245" width="39.946" height="16.555"/>
				<rect x="634.252" y="425.76" fill="#F69245" width="39.947" height="16.555"/>
				<rect x="607.886" y="400.901" fill="#F69245" width="48.149" height="16.554"/>
				<rect x="634.252" y="489.01" fill="#F69245" width="39.947" height="16.555"/>
				<rect x="634.252" y="546.889" fill="#F69245" width="39.947" height="16.553"/>
				<rect x="607.886" y="455.874" fill="#F69245" width="48.149" height="16.554"/>
				<rect x="619.498" y="516.229" fill="#F69245" width="38.877" height="16.553"/>
				<rect x="613.947" y="577.575" fill="#F69245" width="38.877" height="16.554"/>
			</g>
			<g>
				<rect x="132.743" y="375.873" fill="#F69245" width="39.948" height="16.555"/>
				<rect x="131.877" y="425.76" fill="#F69245" width="39.947" height="16.555"/>
				<rect x="150.04" y="400.901" fill="#F69245" width="48.15" height="16.554"/>
				<rect x="131.877" y="489.01" fill="#F69245" width="39.947" height="16.555"/>
				<rect x="131.877" y="546.889" fill="#F69245" width="39.947" height="16.553"/>
				<rect x="150.04" y="455.874" fill="#F69245" width="48.15" height="16.554"/>
				<rect x="147.701" y="516.229" fill="#F69245" width="38.877" height="16.553"/>
				<rect x="153.252" y="577.575" fill="#F69245" width="38.876" height="16.554"/>
			</g>
			<g>
				<path fill="#7F3819" d="M678.944,626.158v86.909H124.773v-86.909c0-5.995,4.848-10.843,10.843-10.843h532.485
					c0.639,0,1.266,0.059,1.88,0.165c0.923,0.154,1.798,0.438,2.626,0.816C676.343,617.999,678.944,621.771,678.944,626.158z"/>
				<path fill="#8F4221" d="M138.173,713.063h-13.4v-86.908c0-5.986,4.853-10.84,10.839-10.84h2.562V713.063z"/>
				<rect x="140.736" y="615.315" fill="#8F4221" width="13.4" height="97.748"/>
				<rect x="156.699" y="615.315" fill="#8F4221" width="13.4" height="97.748"/>
				<rect x="172.661" y="615.315" fill="#8F4221" width="13.401" height="97.748"/>
				<rect x="188.624" y="615.315" fill="#8F4221" width="13.401" height="97.748"/>
				<rect x="204.587" y="615.315" fill="#8F4221" width="13.401" height="97.748"/>
				<rect x="220.55" y="615.315" fill="#8F4221" width="13.4" height="97.748"/>
				<rect x="236.513" y="615.315" fill="#8F4221" width="13.4" height="97.748"/>
				<rect x="252.476" y="615.315" fill="#8F4221" width="13.4" height="97.748"/>
				<rect x="268.438" y="615.315" fill="#8F4221" width="13.401" height="97.748"/>
				<rect x="284.401" y="615.315" fill="#8F4221" width="13.401" height="97.748"/>
				<rect x="300.364" y="615.315" fill="#8F4221" width="13.4" height="97.748"/>
				<rect x="316.327" y="615.315" fill="#8F4221" width="13.4" height="97.748"/>
				<rect x="332.29" y="615.315" fill="#8F4221" width="13.4" height="97.748"/>
				<rect x="348.253" y="615.315" fill="#8F4221" width="13.4" height="97.748"/>
				<rect x="364.216" y="615.315" fill="#8F4221" width="13.4" height="97.748"/>
				<rect x="380.178" y="615.315" fill="#8F4221" width="13.401" height="97.748"/>
				<rect x="396.141" y="615.315" fill="#8F4221" width="13.401" height="97.748"/>
				<rect x="412.104" y="615.315" fill="#8F4221" width="13.401" height="97.748"/>
				<rect x="428.066" y="615.315" fill="#8F4221" width="13.401" height="97.748"/>
				<rect x="444.029" y="615.315" fill="#8F4221" width="13.402" height="97.748"/>
				<rect x="459.992" y="615.315" fill="#8F4221" width="13.401" height="97.748"/>
				<rect x="475.955" y="615.315" fill="#8F4221" width="13.401" height="97.748"/>
				<rect x="491.918" y="615.315" fill="#8F4221" width="13.401" height="97.748"/>
				<rect x="507.88" y="615.315" fill="#8F4221" width="13.402" height="97.748"/>
				<rect x="523.844" y="615.315" fill="#8F4221" width="13.401" height="97.748"/>
				<rect x="539.806" y="615.315" fill="#8F4221" width="13.402" height="97.748"/>
				<rect x="555.77" y="615.315" fill="#8F4221" width="13.4" height="97.748"/>
				<rect x="571.731" y="615.315" fill="#8F4221" width="13.402" height="97.748"/>
				<rect x="587.696" y="615.315" fill="#8F4221" width="13.396" height="97.752"/>
				<rect x="603.659" y="615.315" fill="#8F4221" width="13.397" height="97.752"/>
				<rect x="619.621" y="615.315" fill="#8F4221" width="13.397" height="97.752"/>
				<rect x="635.585" y="615.315" fill="#8F4221" width="13.396" height="97.752"/>
				<rect x="651.547" y="615.315" fill="#8F4221" width="13.397" height="97.752"/>
				<path fill="#8F4221" d="M680.907,626.158v86.909h-13.396v-97.752h2.554c1.608,0,3.146,0.354,4.518,0.981
					C678.318,618.013,680.907,621.771,680.907,626.158z"/>
				<polygon fill="#CF6E3B" points="141.721,616.301 154.136,616.301 154.136,615.315 140.736,615.315 140.736,713.063 
					141.721,713.063 				"/>
				<polygon fill="#CF6E3B" points="157.684,616.301 170.099,616.301 170.099,615.315 156.699,615.315 156.699,713.063 
					157.684,713.063 				"/>
				<polygon fill="#CF6E3B" points="173.646,616.301 186.062,616.301 186.062,615.315 172.661,615.315 172.661,713.063 
					173.646,713.063 				"/>
				<polygon fill="#CF6E3B" points="189.609,616.301 202.025,616.301 202.025,615.315 188.624,615.315 188.624,713.063 
					189.609,713.063 				"/>
				<polygon fill="#CF6E3B" points="205.572,616.301 217.988,616.301 217.988,615.315 204.587,615.315 204.587,713.063 
					205.572,713.063 				"/>
				<polygon fill="#CF6E3B" points="221.535,616.301 233.95,616.301 233.95,615.315 220.549,615.315 220.549,713.063 
					221.535,713.063 				"/>
				<polygon fill="#CF6E3B" points="237.498,616.301 249.913,616.301 249.913,615.315 236.512,615.315 236.512,713.063 
					237.498,713.063 				"/>
				<polygon fill="#CF6E3B" points="253.46,616.301 265.876,616.301 265.876,615.315 252.475,615.315 252.475,713.063 
					253.46,713.063 				"/>
				<polygon fill="#CF6E3B" points="269.423,616.301 281.839,616.301 281.839,615.315 268.438,615.315 268.438,713.063 
					269.423,713.063 				"/>
				<polygon fill="#CF6E3B" points="285.386,616.301 297.802,616.301 297.802,615.315 284.4,615.315 284.4,713.063 285.386,713.063 
									"/>
				<polygon fill="#CF6E3B" points="301.349,616.301 313.765,616.301 313.765,615.315 300.363,615.315 300.363,713.063 
					301.349,713.063 				"/>
				<polygon fill="#CF6E3B" points="317.311,616.301 329.727,616.301 329.727,615.315 316.327,615.315 316.327,713.063 
					317.311,713.063 				"/>
				<polygon fill="#CF6E3B" points="333.274,616.301 345.69,616.301 345.69,615.315 332.29,615.315 332.29,713.063 333.274,713.063 
									"/>
				<polygon fill="#CF6E3B" points="349.237,616.301 361.653,616.301 361.653,615.315 348.252,615.315 348.252,713.063 
					349.237,713.063 				"/>
				<polygon fill="#CF6E3B" points="365.2,616.301 377.616,616.301 377.616,615.315 364.215,615.315 364.215,713.063 365.2,713.063 
									"/>
				<polygon fill="#CF6E3B" points="381.163,616.301 393.579,616.301 393.579,615.315 380.178,615.315 380.178,713.063 
					381.163,713.063 				"/>
				<polygon fill="#CF6E3B" points="397.126,616.301 409.541,616.301 409.541,615.315 396.141,615.315 396.141,713.063 
					397.126,713.063 				"/>
				<polygon fill="#CF6E3B" points="413.089,616.301 425.504,616.301 425.504,615.315 412.104,615.315 412.104,713.063 
					413.089,713.063 				"/>
				<polygon fill="#CF6E3B" points="429.052,616.301 441.467,616.301 441.467,615.315 428.066,615.315 428.066,713.063 
					429.052,713.063 				"/>
				<polygon fill="#CF6E3B" points="445.014,616.301 457.431,616.301 457.431,615.315 444.029,615.315 444.029,713.063 
					445.014,713.063 				"/>
				<polygon fill="#CF6E3B" points="460.978,616.301 473.393,616.301 473.393,615.315 459.992,615.315 459.992,713.063 
					460.978,713.063 				"/>
				<polygon fill="#CF6E3B" points="476.939,616.301 489.355,616.301 489.355,615.315 475.955,615.315 475.955,713.063 
					476.939,713.063 				"/>
				<polygon fill="#CF6E3B" points="492.903,616.301 505.318,616.301 505.318,615.315 491.917,615.315 491.917,713.063 
					492.903,713.063 				"/>
				<polygon fill="#CF6E3B" points="508.865,616.301 521.281,616.301 521.281,615.315 507.879,615.315 507.879,713.063 
					508.865,713.063 				"/>
				<polygon fill="#CF6E3B" points="524.829,616.301 537.244,616.301 537.244,615.315 523.843,615.315 523.843,713.063 
					524.829,713.063 				"/>
				<polygon fill="#CF6E3B" points="540.791,616.301 553.207,616.301 553.207,615.315 539.805,615.315 539.805,713.063 
					540.791,713.063 				"/>
				<polygon fill="#CF6E3B" points="556.754,616.301 569.169,616.301 569.169,615.315 555.769,615.315 555.769,713.063 
					556.754,713.063 				"/>
				<polygon fill="#CF6E3B" points="572.717,616.301 585.133,616.301 585.133,615.315 571.73,615.315 571.73,713.063 
					572.717,713.063 				"/>
				<polygon fill="#CF6E3B" points="588.679,616.301 601.094,616.301 601.094,615.315 587.693,615.315 587.693,713.063 
					588.679,713.063 				"/>
				<polygon fill="#CF6E3B" points="617.057,615.315 617.057,616.297 604.64,616.297 604.64,713.067 603.659,713.067 
					603.659,615.315 				"/>
				<polygon fill="#CF6E3B" points="633.019,615.315 633.019,616.297 620.604,616.297 620.604,713.067 619.621,713.067 
					619.621,615.315 				"/>
				<polygon fill="#CF6E3B" points="648.981,615.315 648.981,616.297 636.565,616.297 636.565,713.067 635.585,713.067 
					635.585,615.315 				"/>
				<polygon fill="#CF6E3B" points="664.944,615.315 664.944,616.297 652.529,616.297 652.529,713.067 651.547,713.067 
					651.547,615.315 				"/>
				<path fill="#CF6E3B" d="M674.582,616.297h-6.091v96.771h-0.98v-97.752h2.554C671.673,615.315,673.21,615.67,674.582,616.297z"/>
			</g>
			<g>
				<path opacity="0.33" fill="#8F4221" d="M680.907,626.158v86.909h-86.743l-5.486-1.467l-0.981-0.26l-2.565-0.686l-12.416-3.311
					l-0.981-0.261l-2.566-0.686l-12.415-3.311l-0.981-0.261l-2.565-0.686l-6.327-1.69l-6.089-1.632l-0.982-0.26l-2.565-0.687
					l-12.416-3.311l-0.98-0.261l-2.565-0.686l-12.416-3.311l-0.981-0.26l-2.341-0.627V452.933h124.723l39.718,23.648v138.734h0.083
					c1.608,0,3.146,0.354,4.518,0.981C678.318,618.013,680.907,621.771,680.907,626.158z"/>
				<rect x="508.073" y="452.929" fill="#8F4221" width="122.185" height="236.486"/>
				<rect x="518.479" y="463.965" fill="#C65F2D" width="101.374" height="225.45"/>
				<rect x="518.479" y="463.965" fill="#B45627" width="101.374" height="225.45"/>
				<rect x="521.656" y="465.738" fill="#C65F2D" width="95.019" height="223.672"/>
				<rect x="528.609" y="472.632" fill="#7FB89E" width="81.115" height="108.783"/>
				<g>
					<polygon fill="#96D1B4" points="551.927,472.632 528.609,500.336 528.609,492.083 544.975,472.632 					"/>
					<polygon fill="#96D1B4" points="561.755,472.632 528.609,512.019 528.609,506.922 557.474,472.632 					"/>
					<polygon fill="#96D1B4" points="605.031,472.632 528.609,563.441 528.609,551.476 594.957,472.632 					"/>
					<polygon fill="#96D1B4" points="609.725,476.581 609.725,483.959 528.609,580.351 528.609,572.984 					"/>
					<polygon fill="#96D1B4" points="609.725,526.894 609.725,535.324 570.941,581.415 563.858,581.415 					"/>
					<polygon fill="#96D1B4" points="609.725,542.052 609.725,547.242 580.979,581.415 576.605,581.415 					"/>
				</g>
				<rect x="528.609" y="527.026" fill="#61A383" width="81.115" height="5.048"/>
				<rect x="528.609" y="472.635" fill="#61A383" width="81.112" height="2.365"/>
				<rect x="566.643" y="470.27" fill="#C65F2D" width="5.046" height="113.515"/>
				<rect x="522.754" y="524.505" fill="#C65F2D" width="92.822" height="5.046"/>
				<g>
					<rect x="528.609" y="592.459" fill="#FBB53D" width="5.605" height="26.108"/>
					<polygon fill="#FCC068" points="534.215,596.137 534.215,599.908 528.609,609.487 528.609,605.715 					"/>
					<polygon fill="#FCC068" points="534.215,606.638 534.215,610.385 529.426,618.567 528.609,618.567 528.609,616.214 					"/>
				</g>
				<polygon fill="#EF7237" points="544.737,605.513 601.345,605.513 603.341,644.906 603.341,602.976 542.741,602.976 
					542.741,644.906 				"/>
			</g>
			<g>
				<rect x="135.711" y="342.336" fill="#EC9141" width="534.271" height="16.146"/>
				<rect x="123.414" y="336.954" fill="#FFE2A3" width="558.854" height="16.146"/>
				<rect x="123.414" y="336.954" fill="#F7D48D" width="558.854" height="4.037"/>
				<rect x="107.455" y="306.681" fill="#FFE2A3" width="590.773" height="30.273"/>
			</g>
			<g>
				<path fill="#92A23A" d="M471.675,682.241c0,13.314-10.784,24.099-24.098,24.099c-8.3,0-15.619-4.198-19.959-10.583
					c-5.403,8.715-15.052,14.52-26.061,14.52c-13.243,0-24.523-8.407-28.804-20.172c-5.155,9.683-15.336,16.27-27.066,16.27
					c-13.243,0-24.523-8.406-28.804-20.171c-5.155,9.684-15.336,16.27-27.066,16.27c-13.243,0-24.523-8.408-28.804-20.172
					c-5.155,9.684-15.336,16.27-27.065,16.27c-9.436,0-17.879-4.269-23.495-10.983c-5.558,7.78-14.662,12.864-24.949,12.864
					c-13.74,0-25.375-9.047-29.265-21.521c-0.591-1.905-1.005-3.891-1.218-5.936c-0.106-1.053-0.166-2.117-0.166-3.192
					c0-8.573,3.536-16.317,9.211-21.876c-1.631-2.53-2.577-5.533-2.577-8.761c0-8.987,7.272-16.259,16.259-16.259
					c2.081,0,4.067,0.401,5.899,1.123c4.943-10.288,15.467-17.393,27.646-17.393c10.914,0,20.479,5.71,25.918,14.306
					c2.98-3.44,7.367-5.628,12.274-5.628c5.451,0,10.264,2.697,13.208,6.812c1.797-0.675,3.724-1.064,5.746-1.064
					c5.735,0,10.761,2.979,13.646,7.461c2.282-2.354,5.475-3.82,9.022-3.82c4.327,0,8.159,2.188,10.417,5.534
					c2.271-2.257,5.404-3.652,8.857-3.652c5.013,0,9.341,2.942,11.352,7.188c1.986-6.137,7.745-10.583,14.543-10.583
					c7.177,0,13.184,4.942,14.828,11.6c1.396-0.721,2.968-1.136,4.635-1.136c4.777,0,8.75,3.324,9.791,7.781
					c2.873-2.578,6.645-4.15,10.807-4.15c3.346,0,6.456,1.017,9.034,2.744c0.792-12.239,10.938-21.923,23.377-21.923
					c12.167,0,22.158,9.246,23.341,21.095h0.118c7.959,0,14.567,5.734,15.939,13.303c0.792-0.355,1.655-0.58,2.59-0.58
					c3.417,0,6.207,2.778,6.207,6.208c0,0.626-0.13,1.218-0.296,1.785c5.937,2.412,10.701,7.131,13.174,13.042
					c0.625,1.49,1.099,3.063,1.406,4.684C471.521,679.132,471.675,680.668,471.675,682.241z"/>
				<circle fill="#92A23A" cx="230.305" cy="602.812" r="6.208"/>
				<circle fill="#92A23A" cx="443.42" cy="630.495" r="5.106"/>
				<circle fill="#92A23A" cx="369.092" cy="626.526" r="3.283"/>
				<circle fill="#92A23A" cx="465.275" cy="648.989" r="3.283"/>
				<circle fill="#92A23A" cx="151.851" cy="643.708" r="3.284"/>
				<path fill="#879735" d="M471.675,682.241c0,13.314-10.784,24.099-24.098,24.099c-8.3,0-15.619-4.198-19.959-10.583
					c-5.403,8.715-15.052,14.52-26.061,14.52c-13.243,0-24.523-8.407-28.804-20.172c-5.155,9.683-15.336,16.27-27.066,16.27
					c-13.243,0-24.523-8.406-28.804-20.171c-5.155,9.684-15.336,16.27-27.066,16.27c-13.243,0-24.523-8.408-28.804-20.172
					c-5.155,9.684-15.336,16.27-27.065,16.27c-9.436,0-17.879-4.269-23.495-10.983c-5.558,7.78-14.662,12.864-24.949,12.864
					c-13.74,0-25.375-9.047-29.265-21.521c1.525-0.91,3.299-1.419,5.179-1.419h308.248c0.532,0,1.054,0.035,1.562,0.131
					C471.521,679.132,471.675,680.668,471.675,682.241z"/>
				<path fill="#F7CF9B" d="M469.664,682.241H161.413c-5.772,0-10.452,4.821-10.452,10.771v24.16h329.154v-24.16
					C480.115,687.063,475.436,682.241,469.664,682.241z"/>
				<path fill="#F7E3CC" d="M469.664,682.241H161.413c-5.772,0-10.452,4.821-10.452,10.771v0.744
					c0-5.948,4.679-10.771,10.452-10.771h308.251c5.771,0,10.451,4.823,10.451,10.771v-0.744
					C480.115,687.063,475.436,682.241,469.664,682.241z"/>
				<path fill="#F1C48E" d="M480.118,693.014v24.156H150.964v-17.192c34.56,5.889,85.963,9.626,143.345,9.626
					c90.852,0,166.694-9.365,184.49-21.828C479.636,689.324,480.118,691.109,480.118,693.014z"/>
				<circle fill="#B1BB32" cx="209.637" cy="637.979" r="4.927"/>
				<path fill="#B1BB32" d="M284.4,645.706c0,2.72-2.206,4.925-4.926,4.925c-2.721,0-4.927-2.205-4.927-4.925
					c0-2.723,2.206-4.928,4.927-4.928C282.195,640.778,284.4,642.983,284.4,645.706z"/>
				<circle fill="#B1BB32" cx="365.809" cy="666.25" r="4.927"/>
				<circle fill="#B1BB32" cx="422.889" cy="631.637" r="3.511"/>
				<circle fill="#B1BB32" cx="450.729" cy="663.58" r="3.511"/>
				<circle fill="#B1BB32" cx="240.955" cy="660.715" r="2.669"/>
				<circle fill="#B1BB32" cx="307.064" cy="666.25" r="2.669"/>
				<circle fill="#B1BB32" cx="393.579" cy="646.992" r="2.669"/>
				<circle fill="#B1BB32" cx="418.804" cy="666.25" r="2.669"/>
				<circle fill="#B1BB32" cx="303.285" cy="637.979" r="2.669"/>
				<circle fill="#B1BB32" cx="224.097" cy="618.567" r="2.669"/>
				<circle fill="#B1BB32" cx="179.362" cy="668.919" r="2.669"/>
			</g>
			<g>
				<rect x="163.769" y="417.455" fill="#723112" width="309.624" height="177.365"/>
				<rect x="163.769" y="415.09" fill="#8F4221" width="309.624" height="177.365"/>
				<rect x="175.169" y="426.127" fill="#7FB89E" width="286.823" height="155.288"/>
				<polygon fill="#96D1B4" points="269.834,426.127 175.169,487.979 175.169,464.485 233.876,426.127 				"/>
				<polygon fill="#96D1B4" points="461.992,426.127 461.992,427.084 225.777,581.415 185.503,581.415 423.195,426.127 				"/>
				<polygon fill="#96D1B4" points="461.992,434.037 461.992,447.079 256.366,581.415 236.407,581.415 				"/>
				<polygon fill="#96D1B4" points="411.62,426.127 175.169,580.623 175.169,572.795 399.642,426.127 				"/>
				<polygon fill="#96D1B4" points="303.285,426.127 175.169,509.831 175.169,498.857 286.507,426.127 				"/>
				<polygon fill="#96D1B4" points="323.801,426.127 175.169,523.239 175.169,517.162 314.507,426.127 				"/>
				<rect x="175.164" y="426.127" fill="#61A383" width="286.832" height="4.138"/>
			</g>
			<polygon fill="#DCA98B" points="636.297,682.254 636.297,690.79 502.044,690.79 502.044,682.254 508.074,676.01 630.255,676.01 
							"/>
			<polygon fill="#FCF5C9" points="636.297,682.254 502.044,682.254 508.074,676.01 630.255,676.01 			"/>
			<polygon fill="#DCA98B" points="643.263,695.539 643.263,704.963 495.076,704.963 495.076,695.539 501.734,688.647 
				636.596,688.647 			"/>
			<polygon fill="#FCF5C9" points="643.263,695.539 495.076,695.539 501.734,688.647 636.596,688.647 			"/>
			<polygon fill="#DCA98B" points="650.483,709.604 650.483,719.946 487.858,719.946 487.858,709.604 495.164,702.042 
				643.164,702.042 			"/>
			<polygon fill="#FCF5C9" points="650.483,709.604 487.858,709.604 495.164,702.042 643.164,702.042 			"/>
			<path opacity="0.71" fill="#D0D2D3" d="M473.069,400.901h-24.015h-23.679h-23.583h-23.635h-23.641h-23.725h-23.739h-23.64H259.71
				h-23.55h-23.721h-23.742h-23.619l-5.99,54.127l3.196,21.497c1.201,8.086,7.344,14.644,13.721,14.644h2.904
				c5.93,0,9.966-5.674,9.537-12.972c1.74,7.298,7.461,12.972,13.392,12.972h2.904c5.93,0,9.966-5.674,9.536-12.972
				c1.74,7.298,7.462,12.972,13.392,12.972h2.904c5.93,0,9.966-5.674,9.537-12.972c1.739,7.298,7.462,12.972,13.392,12.972h2.905
				c5.929,0,9.966-5.674,9.536-12.973c1.739,7.299,7.462,12.973,13.392,12.973h2.905c5.929,0,9.965-5.674,9.536-12.973
				c1.739,7.299,7.461,12.973,13.392,12.973h2.904c5.93,0,9.967-5.674,9.536-12.973c1.74,7.299,7.462,12.973,13.393,12.973h2.904
				c5.93,0,9.967-5.674,9.536-12.973c1.74,7.299,7.462,12.973,13.392,12.973h2.905c5.929,0,9.965-5.674,9.536-12.972
				c1.739,7.298,7.462,12.972,13.392,12.972h2.905c5.93,0,9.966-5.674,9.536-12.972c1.74,7.298,7.463,12.972,13.393,12.972h2.904
				c5.93,0,9.967-5.674,9.535-12.972c1.74,7.298,7.463,12.972,13.393,12.972h2.904c5.93,0,9.967-5.674,9.536-12.973
				c1.74,7.299,7.463,12.973,13.393,12.973h2.903c5.93,0,9.967-5.674,9.536-12.973c1.74,7.299,7.463,12.973,13.393,12.973h2.903
				c6.377,0,10.571-6.558,9.369-14.644l-3.195-21.497h0.078L473.069,400.901z"/>
			<g>
				<polygon fill="#EC5224" points="486.724,443.527 151.053,443.527 165.071,400.901 472.705,400.901 				"/>
				<g>
					<path fill="#DD4D22" d="M165.484,471.985h-2.9c-6.368,0-11.531-5.162-11.531-11.53v-16.928h25.963v16.928
						C177.016,466.823,171.854,471.985,165.484,471.985z"/>
					<path fill="#F1F1F2" d="M191.288,471.985h-2.901c-6.368,0-11.531-5.162-11.531-11.53v-16.928h25.963v16.928
						C202.818,466.823,197.656,471.985,191.288,471.985z"/>
					<path fill="#DD4D22" d="M217.09,471.985h-2.901c-6.369,0-11.532-5.162-11.532-11.53v-16.928h25.964v16.928
						C228.622,466.823,223.458,471.985,217.09,471.985z"/>
					<path fill="#F1F1F2" d="M242.893,471.985h-2.901c-6.368,0-11.531-5.162-11.531-11.53v-16.928h25.963v16.928
						C254.423,466.823,249.261,471.985,242.893,471.985z"/>
					<path fill="#DD4D22" d="M268.695,471.985h-2.901c-6.368,0-11.531-5.162-11.531-11.53v-16.928h25.963v16.928
						C280.226,466.823,275.063,471.985,268.695,471.985z"/>
					<path fill="#F1F1F2" d="M294.497,471.985h-2.901c-6.368,0-11.531-5.162-11.531-11.53v-16.928h25.964v16.928
						C306.029,466.823,300.866,471.985,294.497,471.985z"/>
					<path fill="#DD4D22" d="M320.3,471.985h-2.901c-6.368,0-11.531-5.162-11.531-11.53v-16.928h25.963v16.928
						C331.831,466.823,326.668,471.985,320.3,471.985z"/>
					<path fill="#F1F1F2" d="M346.102,471.985h-2.9c-6.369,0-11.532-5.162-11.532-11.53v-16.928h25.964v16.928
						C357.634,466.823,352.471,471.985,346.102,471.985z"/>
					<path fill="#DD4D22" d="M371.905,471.985h-2.901c-6.368,0-11.531-5.162-11.531-11.53v-16.928h25.964v16.928
						C383.436,466.823,378.273,471.985,371.905,471.985z"/>
					<path fill="#F1F1F2" d="M397.707,471.985h-2.901c-6.368,0-11.531-5.162-11.531-11.53v-16.928h25.964v16.928
						C409.239,466.823,404.076,471.985,397.707,471.985z"/>
					<path fill="#DD4D22" d="M423.51,471.985h-2.902c-6.368,0-11.53-5.162-11.53-11.53v-16.928h25.964v16.928
						C435.041,466.823,429.878,471.985,423.51,471.985z"/>
					<path fill="#F1F1F2" d="M449.312,471.985h-2.9c-6.37,0-11.532-5.162-11.532-11.53v-16.928h25.964v16.928
						C460.843,466.823,455.681,471.985,449.312,471.985z"/>
					<path fill="#DD4D22" d="M475.114,471.985h-2.9c-6.369,0-11.531-5.162-11.531-11.53v-16.928h25.962v16.928
						C486.645,466.823,481.482,471.985,475.114,471.985z"/>
				</g>
				<polygon fill="#FFFFFF" points="460.568,443.527 176.814,443.527 188.664,400.901 448.719,400.901 				"/>
				<polygon fill="#EC5224" points="434.759,443.527 202.686,443.527 212.378,400.901 425.067,400.901 				"/>
				<polygon fill="#FFFFFF" points="409.051,443.527 228.532,443.527 236.071,400.901 401.512,400.901 				"/>
				<polygon fill="#EC5224" points="383.296,443.527 254.203,443.527 259.594,400.901 377.905,400.901 				"/>
				<polygon fill="#FFFFFF" points="357.527,443.527 280.034,443.527 283.27,400.901 354.291,400.901 				"/>
				<polygon fill="#EC5224" points="331.674,443.527 305.802,443.527 306.883,400.901 330.594,400.901 				"/>
			</g>
		</g>
		<g>
			<g>
				<path fill="#B3BBC0" d="M514.168,201.949c-15.759-46.344-59.649-79.677-111.326-79.677c-51.678,0-95.567,33.333-111.326,79.677
					H133.92v105.01h537.843v-105.01H514.168z"/>
				<path fill="#3B4E5B" d="M506.032,209.417c-13.161-44.542-54.38-77.035-103.19-77.035c-48.811,0-90.031,32.493-103.191,77.035
					H142.588v90.078h170.602h179.305h170.601v-90.078H506.032z"/>
			</g>
			<g>
				<path fill="#C65F2D" d="M445.183,191.608c0,0.246-0.028,0.492-0.038,0.737v0.502c0,10.251-8.313,18.564-18.556,18.564h-47.533
					c-10.242,0-18.555-8.313-18.555-18.564v-2.478h0.066c0.633-8.483,7.697-15.18,16.352-15.18c3.376,0,6.497,1.021,9.098,2.761
					c1.475,0.994,2.78,2.213,3.858,3.604c1.041-1.333,2.29-2.516,3.688-3.471c2.639-1.825,5.835-2.894,9.278-2.894
					c3.215,0,6.204,0.927,8.729,2.525c1.626,1.021,3.054,2.327,4.228,3.84c0.954-1.22,2.07-2.317,3.329-3.225
					c2.704-1.977,6.033-3.14,9.636-3.14c8.655,0,15.719,6.696,16.352,15.18h0.029v0.492
					C445.154,191.116,445.183,191.352,445.183,191.608z"/>
				<path fill="#FAAE5F" d="M393.725,181.157c0,6.176-1.759,11.188-3.934,11.188c-2.185,0-3.944-5.012-3.944-11.188
					c0-1.116,0.057-2.194,0.17-3.207c1.475,0.994,2.78,2.213,3.858,3.604c1.041-1.333,2.29-2.516,3.688-3.471
					C393.668,179.058,393.725,180.088,393.725,181.157z"/>
				<path fill="#FAAE5F" d="M419.259,181.157c0,6.176-1.758,11.188-3.934,11.188c-2.185,0-3.943-5.012-3.943-11.188
					c0-1.201,0.065-2.365,0.189-3.442c1.626,1.021,3.054,2.327,4.228,3.84c0.954-1.22,2.07-2.317,3.329-3.225
					C419.212,179.229,419.259,180.183,419.259,181.157z"/>
			</g>
			<g>
				<path fill="#FFFFFF" d="M389.47,146.167c0,0-0.039,0.114-0.112,0.327c-0.09,0.209-0.166,0.524-0.273,0.9
					c-0.194,0.77-0.368,1.866-0.26,3.103c0.048,0.615,0.164,1.263,0.367,1.9c0.206,0.654,0.48,1.228,0.88,1.868
					c0.235,0.398,0.431,0.679,0.65,1.011c0.241,0.341,0.484,0.686,0.73,1.034c0.514,0.702,1.061,1.453,1.601,2.289
					c0.522,0.842,1.032,1.783,1.358,2.804c0.343,1.014,0.492,2.079,0.503,3.072c-0.008,0.247-0.015,0.492-0.022,0.735
					c-0.004,0.337-0.042,0.456-0.066,0.691c-0.072,0.5-0.164,0.983-0.293,1.404c-0.253,0.868-0.609,1.639-1.007,2.296
					c-0.805,1.317-1.764,2.159-2.47,2.637c-0.711,0.483-1.169,0.646-1.169,0.646s0.268-0.412,0.646-1.119
					c0.372-0.71,0.829-1.731,1.101-2.968c0.142-0.614,0.241-1.279,0.272-1.968c0.014-0.357,0.015-0.684-0.007-1.014
					c-0.021-0.18-0.019-0.482-0.048-0.568l-0.072-0.548c-0.234-1.464-0.794-2.78-1.723-4.208c-0.49-0.764-0.98-1.526-1.462-2.277
					c-0.253-0.401-0.489-0.818-0.713-1.243c-0.226-0.438-0.469-0.917-0.609-1.297c-0.396-0.895-0.645-1.925-0.7-2.833
					c-0.063-0.924,0.033-1.787,0.219-2.545c0.382-1.524,1.104-2.604,1.682-3.239c0.286-0.328,0.552-0.548,0.724-0.682
					C389.373,146.24,389.47,146.167,389.47,146.167z"/>
				<path fill="#FFFFFF" d="M401.58,146.167c0,0-0.039,0.114-0.113,0.327c-0.089,0.209-0.166,0.524-0.271,0.9
					c-0.196,0.77-0.369,1.866-0.261,3.103c0.048,0.615,0.164,1.263,0.367,1.9c0.206,0.654,0.48,1.228,0.881,1.868
					c0.234,0.398,0.432,0.679,0.649,1.011c0.241,0.341,0.484,0.686,0.729,1.034c0.514,0.702,1.062,1.453,1.601,2.289
					c0.522,0.842,1.032,1.783,1.358,2.804c0.344,1.014,0.491,2.079,0.504,3.072c-0.008,0.247-0.015,0.492-0.022,0.735
					c-0.003,0.337-0.042,0.456-0.067,0.691c-0.071,0.5-0.162,0.983-0.291,1.404c-0.254,0.868-0.611,1.639-1.008,2.296
					c-0.805,1.317-1.764,2.159-2.471,2.637c-0.711,0.483-1.168,0.646-1.168,0.646s0.268-0.412,0.645-1.119
					c0.371-0.71,0.829-1.731,1.102-2.968c0.143-0.614,0.24-1.279,0.271-1.968c0.015-0.357,0.015-0.684-0.008-1.014
					c-0.021-0.18-0.02-0.482-0.049-0.568l-0.072-0.548c-0.232-1.464-0.794-2.78-1.723-4.208c-0.489-0.764-0.979-1.526-1.462-2.277
					c-0.252-0.401-0.489-0.818-0.712-1.243c-0.227-0.438-0.47-0.917-0.61-1.297c-0.395-0.895-0.646-1.925-0.7-2.833
					c-0.063-0.924,0.034-1.787,0.22-2.545c0.381-1.524,1.103-2.604,1.681-3.239c0.286-0.328,0.552-0.548,0.725-0.682
					C401.484,146.24,401.58,146.167,401.58,146.167z"/>
				<path fill="#FFFFFF" d="M413.69,146.167c0,0-0.04,0.114-0.112,0.327c-0.09,0.209-0.166,0.524-0.272,0.9
					c-0.195,0.77-0.368,1.866-0.262,3.103c0.048,0.615,0.165,1.263,0.368,1.9c0.205,0.654,0.479,1.228,0.88,1.868
					c0.234,0.398,0.431,0.679,0.649,1.011c0.24,0.341,0.484,0.686,0.729,1.034c0.515,0.702,1.061,1.453,1.602,2.289
					c0.521,0.842,1.031,1.783,1.357,2.804c0.345,1.014,0.492,2.079,0.503,3.072c-0.007,0.247-0.015,0.492-0.021,0.735
					c-0.003,0.337-0.041,0.456-0.067,0.691c-0.071,0.5-0.163,0.983-0.292,1.404c-0.252,0.868-0.609,1.639-1.008,2.296
					c-0.805,1.317-1.763,2.159-2.47,2.637c-0.712,0.483-1.169,0.646-1.169,0.646s0.269-0.412,0.646-1.119
					c0.372-0.71,0.828-1.731,1.101-2.968c0.144-0.614,0.242-1.279,0.272-1.968c0.014-0.357,0.015-0.684-0.008-1.014
					c-0.021-0.18-0.019-0.482-0.049-0.568l-0.071-0.548c-0.234-1.464-0.795-2.78-1.723-4.208c-0.49-0.764-0.98-1.526-1.462-2.277
					c-0.255-0.401-0.49-0.818-0.714-1.243c-0.225-0.438-0.469-0.917-0.608-1.297c-0.396-0.895-0.646-1.925-0.701-2.833
					c-0.063-0.924,0.034-1.787,0.221-2.545c0.381-1.524,1.103-2.604,1.68-3.239c0.287-0.328,0.553-0.548,0.726-0.682
					C413.594,146.24,413.69,146.167,413.69,146.167z"/>
			</g>
		</g>
	</g>
</g>
</svg>
